HIERARCHY
ROOT Hips
{
  OFFSET 1.44925e-005 102.336 -0.101585
  CHANNELS 6 Xposition Yposition Zposition Zrotation Xrotation Yrotation
  JOINT LeftUpLeg
  {
    OFFSET 8.9458 -8.66707 0.101652
    CHANNELS 3 Zrotation Xrotation Yrotation
    JOINT LeftLeg
    {
      OFFSET 0 -44.4227 1.3727
      CHANNELS 3 Zrotation Xrotation Yrotation
      JOINT LeftFoot
      {
        OFFSET -0.253549 -42.0924 -1.46059
        CHANNELS 3 Zrotation Xrotation Yrotation
        JOINT LeftToes
        {
          OFFSET -0.04 -4.41509 8.4991
          CHANNELS 3 Zrotation Xrotation Yrotation
          End Site
          {
            OFFSET 0.08 -0.047448 9.77979
          }
        }
      }
    }
  }
  JOINT Spine
  {
    OFFSET 0 11.8905 0
    CHANNELS 3 Zrotation Xrotation Yrotation
    JOINT Spine1
    {
      OFFSET 0 25.6574 0.127663
      CHANNELS 3 Zrotation Xrotation Yrotation
      JOINT RightShoulder
      {
        OFFSET -8.99 -0.362252 -0.22
        CHANNELS 3 Zrotation Xrotation Yrotation
        JOINT RightArm
        {
          OFFSET -10.2827 -0.00338 0.322123
          CHANNELS 3 Zrotation Xrotation Yrotation
          JOINT RightForeArm
          {
            OFFSET -26.364 0.099144 -1.42434
            CHANNELS 3 Zrotation Xrotation Yrotation
            JOINT RightHand
            {
              OFFSET -22.0324 0.085362 1.02216
              CHANNELS 3 Zrotation Xrotation Yrotation
              End Site
              {
                OFFSET -13.3284 -0.6 1.50291
              }
            }
          }
        }
      }
      JOINT LeftShoulder1
      {
        OFFSET 8.99 -0.362252 -0.22
        CHANNELS 3 Zrotation Xrotation Yrotation
        JOINT LeftArm
        {
          OFFSET 10.2827 -0.00337999 0.322123
          CHANNELS 3 Zrotation Xrotation Yrotation
          JOINT LeftForeArm
          {
            OFFSET 26.2597 0.099144 -1.42434
            CHANNELS 3 Zrotation Xrotation Yrotation
            JOINT LeftHand
            {
              OFFSET 22.0902 0.085362 1.02216
              CHANNELS 3 Zrotation Xrotation Yrotation
              End Site
              {
                OFFSET 13.419 -0.6 1.50291
              }
            }
          }
        }
      }
      JOINT Head
      {
        OFFSET 0 8.73416 0.011341
        CHANNELS 3 Zrotation Xrotation Yrotation
        End Site
        {
          OFFSET -0.29 12.7742 2.51395
        }
      }
    }
  }
  JOINT RightUpLeg
  {
    OFFSET -8.9458 -8.66707 0.101652
    CHANNELS 3 Zrotation Xrotation Yrotation
    JOINT RightLeg
    {
      OFFSET 0 -44.4227 1.3727
      CHANNELS 3 Zrotation Xrotation Yrotation
      JOINT RightFoot
      {
        OFFSET 0.253549 -42.0924 -1.46059
        CHANNELS 3 Zrotation Xrotation Yrotation
        JOINT RightToes
        {
          OFFSET 0.04 -4.41509 8.4991
          CHANNELS 3 Zrotation Xrotation Yrotation
          End Site
          {
            OFFSET -0.08 -0.137448 9.77979
          }
        }
      }
    }
  }
}
MOTION
Frames:	18
Frame Time:	0.0333333
78.4022 22.5614 5.33447 -49.0748 5.09776 -93.0175 8.18619 -73.4994 18.6501 178.809 23.8416 -155.921 -3.12353 -39.7354 -0.702661 -1.01069e-009 8.75179e-006 -1.4907e-008 7.64582 69.135 -4.98161 -1.56793 33.5161 1.54785 37.4851 1.97261 0.518184 47.1329 -16.7054 35.8067 34.642 66.1708 -25.4177 -78.5989 -5.11082 13.062 -42.3402 2.95185 -2.54438 3.32321 37.7539 -45.6892 -14.9904 21.3445 -9.81578 5.82328 9.61819 -0.917488 -1.26768 -19.9888 -1.87673 0.258778 -71.5934 -11.6161 -178.868 23.4909 157.972 6.9988 -42.0899 1.86839 0.0462048 0.000530888 0.662642 
78.0902 23.3129 5.51862 -46.7155 5.44825 -93.2896 3.61569 -74.3986 14.1994 178.756 24.2219 -154.299 -3.52486 -40.5804 -0.848548 -1.01069e-009 8.75179e-006 -1.4907e-008 7.62017 69.262 -5.01915 -2.05111 34.1788 1.77418 36.3471 2.00765 0.712654 47.9421 -15.5457 38.3823 35.8291 66.1783 -25.97 -76.6797 -4.53945 12.9904 -41.6741 2.94701 -2.62435 7.26951 39.2701 -49.3527 -14.7252 18.3592 -10.8969 5.82328 9.61819 -0.917488 -0.844928 -23.6757 -2.33646 2.51731 -72.5176 -9.47327 -178.854 24.0326 157.668 7.11965 -42.5971 1.94182 0.0462048 0.000530888 0.662642 
77.9533 24.5287 5.64594 -43.8951 5.11436 -93.3416 -2.67621 -75.2945 8.22743 178.71 25.2818 -153.129 -3.97841 -40.6531 -0.991688 -1.01069e-009 8.75179e-006 -1.4907e-008 6.39443 68.9581 -4.36215 -2.07385 34.7457 1.54842 34.827 2.06896 1.0222 48.9416 -14.0072 41.3512 36.2926 65.897 -25.7882 -72.9602 -3.39321 12.7319 -41.0709 2.93857 -2.68999 13.4252 40.9806 -54.4407 -14.5246 13.9385 -12.3769 5.82328 9.61819 -0.917488 -0.397927 -27.8345 -2.65897 3.85885 -73.2655 -7.4063 -178.839 25.1002 157.438 7.12008 -43.1913 1.98195 0.0462048 0.000530888 0.662642 
78.031 26.4904 5.69508 -40.2789 4.05852 -93.4083 -8.81443 -76.0211 2.33816 178.68 27.4058 -152.923 -4.82018 -40.4626 -1.24682 -1.01069e-009 8.75179e-006 -1.4907e-008 4.00229 68.306 -2.81928 -1.61436 34.4559 1.10828 33.6599 2.11917 1.28255 48.7522 -11.9098 43.774 35.2912 64.524 -24.1402 -66.0464 -1.40722 12.1863 -40.3127 2.9237 -2.76535 19.5667 41.818 -59.5848 -14.446 10.0086 -13.7189 5.82328 9.61819 -0.917488 -0.311799 -32.1716 -3.11602 5.09867 -74.0678 -4.55382 -178.814 26.9978 157.188 7.05967 -43.5795 1.98771 0.0462048 0.000530888 0.662642 
78.316 29.3657 5.72836 -35.8195 2.89095 -93.6443 -13.8852 -76.2118 -3.09505 178.66 30.7497 -153.377 -6.29149 -40.7437 -1.71804 -1.01069e-009 8.75179e-006 -1.4907e-008 1.91465 67.4068 -1.33493 -1.16507 33.034 0.811801 33.1148 2.13666 1.39453 46.2286 -8.52469 45.4245 32.5411 61.1042 -20.5308 -56.1037 1.26929 11.0531 -39.3197 2.90129 -2.86061 20.6742 39.9617 -61.5035 -14.2885 10.2666 -13.8293 5.82328 9.61819 -0.917488 -0.59488 -36.5808 -3.68026 8.07558 -74.9926 0.42459 -178.778 30.0232 157.009 7.3175 -43.317 2.05735 0.0462048 0.000530888 0.662642 
78.7549 33.1505 5.82228 -30.9251 2.12748 -93.7259 -19.6727 -75.9347 -10.0392 178.614 35.2771 -153.711 -7.86082 -40.4826 -2.18959 -1.01069e-009 8.75179e-006 -1.4907e-008 1.35143 66.5665 -0.869691 -0.630595 30.5696 0.501755 32.4996 2.12767 1.45 42.9082 -4.95605 46.9192 30.0085 57.2971 -17.1799 -45.6007 3.94979 9.10156 -38.3389 2.88025 -2.96023 15.6536 34.8051 -59.8428 -14.1807 15.5337 -12.3486 5.82328 9.61819 -0.917488 -0.950052 -40.8857 -4.05393 12.2571 -75.2944 6.35235 -178.718 34.3356 156.708 8.10857 -42.705 2.27909 0.0462048 0.000530888 0.662642 
79.2032 37.6778 5.97657 -26.1708 1.92694 -93.1234 -26.0547 -74.5607 -18.2731 178.521 40.7557 -153.801 -8.94685 -39.8063 -2.46988 -1.01069e-009 8.75179e-006 -1.4907e-008 2.481 65.7703 -1.7047 0.41866 27.6358 -0.18215 31.205 2.10636 1.56462 42.8067 -4.67928 49.0189 30.2063 57.7034 -17.4404 -35.8394 6.10957 6.71271 -37.9213 2.87284 -3.00712 8.30786 26.8665 -57.5657 -14.6645 23.4947 -9.74342 5.82328 9.61819 -0.917488 -1.13314 -44.8717 -4.03251 13.7918 -74.2814 9.0693 -178.612 39.8083 156.189 9.18685 -42.4247 2.61478 0.0462048 0.000530888 0.662642 
79.3967 42.6112 6.1021 -21.569 1.64988 -92.276 -29.8379 -72.5386 -23.8375 178.385 46.8249 -153.948 -9.58549 -39.2472 -2.61284 -1.01069e-009 8.75179e-006 -1.4907e-008 3.19302 64.2191 -2.32131 2.02141 24.8657 -1.15811 29.8877 2.08525 1.68896 46.4592 -8.09379 52.2253 33.561 62.4596 -21.8325 -25.1449 7.80159 4.42662 -38.718 2.88847 -2.92202 2.45691 17.8438 -56.9383 -15.7675 31.2838 -6.76508 5.82328 9.61819 -0.917488 -1.1494 -48.2693 -3.66793 12.1202 -72.6957 8.44869 -178.46 45.8747 155.899 10.2359 -42.3762 2.95739 0.0462048 0.000530888 0.662642 
79.2184 47.5882 6.119 -16.9199 0.901423 -92.2115 -29.359 -71.0523 -24.1945 178.188 53.1214 -154.279 -10.1612 -38.9278 -2.75334 -1.01069e-009 8.75179e-006 -1.4907e-008 1.0898 61.5321 -0.936574 3.42347 22.2604 -1.79993 29.3619 2.0718 1.72692 50.241 -11.4402 56.1854 36.8819 66.45 -26.3374 -13.7024 9.02 2.49685 -40.3693 2.91847 -2.74606 -1.98729 9.25276 -57.7961 -17.2818 37.9199 -3.69426 5.82328 9.61819 -0.917488 -0.891973 -50.7359 -3.02188 10.6032 -71.5115 8.45659 -178.294 51.9919 156.304 11.1695 -42.0265 3.22826 0.0462048 0.000530888 0.662642 
79.0851 52.6408 6.12311 -14.5226 1.11534 -92.2098 -24.2725 -67.7959 -20.6175 177.918 59.6172 -154.735 -10.6643 -38.3779 -2.84567 -1.01069e-009 8.75179e-006 -1.4907e-008 0.770269 60.1785 -0.650908 4.07885 19.5595 -1.99709 29.1072 2.04842 1.69779 52.5374 -12.878 59.2836 36.9435 67.5768 -27.264 -6.19822 9.599 1.18686 -41.507 2.94614 -2.64526 -6.87685 2.13168 -59.2549 -19.3067 42.6629 -0.288471 5.82328 9.61819 -0.917488 -0.233754 -52.0801 -2.1578 8.28629 -67.9619 6.30307 -178.04 58.7117 156.884 11.9743 -41.2814 3.40469 0.0462048 0.000530888 0.662642 
78.7309 57.5851 6.10196 -12.9038 1.41731 -92.194 -20.3522 -63.7951 -18.1407 177.436 66.1745 -154.499 -10.998 -37.5338 -2.85382 -1.01069e-009 8.75179e-006 -1.4907e-008 0.7632 58.5532 -0.53688 4.3891 17.0788 -2.01305 28.5016 2.02339 1.71465 53.6574 -13.2339 60.361 34.9852 66.7434 -25.8409 -6.05559 9.60318 1.02241 -41.7557 2.97334 -2.66781 -12.275 -2.93013 -60.6192 -21.4244 43.9134 3.1511 5.82328 9.61819 -0.917488 0.460009 -52.5047 -1.34319 6.71513 -63.7855 4.65673 -177.614 65.4911 157.112 12.4691 -40.2677 3.43979 0.0462048 0.000530888 0.662642 
78.0646 62.3689 6.04478 -11.5544 1.36333 -92.0708 -18.4919 -59.4405 -17.385 176.478 72.8064 -153.242 -11.1345 -36.4576 -2.77837 -1.01069e-009 8.75179e-006 -1.4907e-008 0.314943 56.124 -0.198946 4.8575 15.1811 -2.06288 28.096 2.01108 1.73887 53.525 -13.5828 59.4983 32.1634 64.1418 -23.4124 -9.94655 9.32167 1.88272 -41.6806 2.99932 -2.73208 -18.2986 -6.73505 -61.4157 -23.0938 42.7069 6.42615 5.82328 9.61819 -0.917488 0.818871 -52.4005 -0.80277 5.43905 -59.4847 3.60506 -176.8 72.1826 156.585 12.5781 -39.1752 3.34001 0.0462048 0.000530888 0.662642 
77.1949 67.1093 5.97277 -10.9546 1.18164 -91.7283 -17.247 -54.2505 -17.0862 174.107 79.6917 -150.373 -11.1779 -35.1033 -2.64738 -1.01069e-009 8.75179e-006 -1.4907e-008 -0.126432 53.762 -0.0164347 5.38307 13.6945 -2.20813 28.502 2.00326 1.65672 52.3767 -14.2304 57.5287 28.6692 60.1161 -20.2019 -11.6921 9.14088 2.67462 -41.6118 3.01985 -2.78436 -24.7307 -10.0153 -61.4562 -24.2123 41.8823 9.50253 5.82328 9.61819 -0.917488 1.00746 -51.9377 -0.471686 4.08327 -54.3373 2.53649 -174.837 79.1159 154.814 12.4208 -38.0668 3.16026 0.0462048 0.000530888 0.662642 
76.1907 71.8367 5.89888 -10.9202 1.03056 -91.3152 -15.8999 -48.4912 -16.6536 160.31 86.8444 -136.115 -11.1246 -33.4507 -2.46244 -1.01069e-009 8.75179e-006 -1.4907e-008 -0.314249 51.6314 -0.134325 5.65717 12.3583 -2.40548 29.1621 1.9875 1.51715 51.3895 -14.9109 55.1255 25.0608 56.842 -16.2112 -10.0672 9.26541 2.49236 -41.4751 3.02962 -2.82398 -29.6756 -12.2626 -60.457 -24.7218 42.5865 11.4582 5.82328 9.61819 -0.917488 1.2489 -51.0772 -0.282822 2.9459 -48.5191 1.56894 -164.398 86.4203 144.701 12.0835 -36.8465 2.9228 0.0462048 0.000530888 0.662642 
75.0527 76.4403 5.81823 -10.7858 0.931647 -91.0107 -14.4501 -42.9393 -16.1304 13.064 85.2611 11.4638 -10.8148 -31.6307 -2.20725 -1.01069e-009 8.75179e-006 -1.4907e-008 -0.38083 49.1023 -0.336892 5.6994 11.2128 -2.5529 29.3746 1.97096 1.44109 50.8344 -15.2134 52.3744 22.9608 55.6349 -13.4696 -8.18475 9.44158 1.77112 -41.3468 3.0343 -2.85194 -31.868 -13.0463 -58.299 -24.2296 44.3746 10.8254 5.82328 9.61819 -0.917488 1.31965 -49.8185 -0.360702 2.25201 -42.8761 0.945534 -12.563 85.6382 -6.77207 11.5574 -35.3491 2.61549 0.0462048 0.000530888 0.662642 
73.8076 80.8174 5.72029 -10.535 0.911605 -90.7319 -12.904 -37.6447 -15.5462 4.97569 77.5417 19.6246 -10.1832 -29.7432 -1.89297 -1.01069e-009 8.75179e-006 -1.4907e-008 -0.404754 46.2214 -0.49141 5.75845 10.311 -2.62586 29.3918 1.95723 1.40018 49.8172 -15.0162 49.2308 22.2644 55.644 -12.1485 -7.9348 9.4649 1.62503 -41.3076 3.04033 -2.87017 -31.2933 -12.126 -55.12 -22.6196 45.046 8.0107 5.82328 9.61819 -0.917488 0.997396 -48.2319 -0.721386 1.81906 -37.4648 0.430628 -4.44959 77.8072 -14.6172 10.8764 -33.464 2.24905 0.0462048 0.000530888 0.662642 
72.5136 84.8852 5.59857 -10.5781 0.96294 -90.2943 -11.2625 -32.2203 -14.8598 3.06255 69.6729 21.2243 -9.36747 -27.7589 -1.56156 -1.01069e-009 8.75179e-006 -1.4907e-008 -0.344989 43.5776 -0.70319 5.87743 9.58614 -2.72207 29.6342 1.93924 1.31722 48.2332 -14.5735 45.9267 21.7361 55.114 -10.9042 -8.48343 9.40211 2.08134 -41.0704 3.03625 -2.89564 -29.3824 -9.81836 -51.3457 -20.3977 44.2236 4.33801 5.82328 9.61819 -0.917488 0.563415 -46.3977 -1.09351 1.43166 -31.8415 -0.307365 -2.70044 69.7815 -16.1524 10.0727 -31.2128 1.8503 0.0462048 0.000530888 0.662642 
71.2076 88.5181 5.46163 -10.7794 1.03331 -89.7452 -9.6121 -26.9264 -14.0778 2.21991 61.95 21.4404 -8.50549 -25.6848 -1.24899 -1.01069e-009 8.75179e-006 -1.4907e-008 -0.206977 41.0129 -1.0423 5.85941 9.09466 -2.887 29.8955 1.91818 1.22419 47.0924 -14.2475 42.7474 21.2239 54.0323 -9.9709 -8.72497 9.35881 2.49649 -40.3964 3.01148 -2.941 -26.7954 -6.08701 -47.3517 -17.9738 42.5673 0.420923 5.82328 9.61819 -0.917488 0.410478 -44.4071 -1.21325 1.14261 -26.2805 -1.20555 -1.96087 61.8206 -16.6391 9.11083 -28.7363 1.44095 0.0462048 0.000530888 0.662642 
